<svg width="150" height="95" viewBox="0 0 100 45" fill="none" xmlns="http://www.w3.org/2000/svg">
<path d="M15.5243 33.2433C14.0849 33.2433 12.8482 32.9392 11.8142 32.331C10.7803 31.7228 9.9896 30.8003 9.44221 29.5636C8.89483 28.3067 8.62113 26.7253 8.62113 24.8196C8.62113 22.8936 8.90496 21.3123 9.47262 20.0756C10.0606 18.8389 10.8715 17.9165 11.9055 17.3083C12.9394 16.7001 14.1457 16.3959 15.5243 16.3959C17.0651 16.3959 18.4437 16.7406 19.6601 17.4299C20.8968 18.1192 21.8699 19.0923 22.5795 20.3493C23.3093 21.6063 23.6743 23.0964 23.6743 24.8196C23.6743 26.5226 23.3093 28.0026 22.5795 29.2595C21.8699 30.5165 20.8968 31.4998 19.6601 32.2093C18.4437 32.8986 17.0651 33.2433 15.5243 33.2433ZM5.85379 33V10.4355H10.5978V19.954L10.2937 24.7892L10.3849 29.6549V33H5.85379ZM14.7032 29.3508C15.4939 29.3508 16.1933 29.1683 16.8015 28.8034C17.43 28.4384 17.9267 27.9215 18.2916 27.2524C18.6768 26.5631 18.8694 25.7522 18.8694 24.8196C18.8694 23.8668 18.6768 23.0558 18.2916 22.3868C17.9267 21.7178 17.43 21.2008 16.8015 20.8359C16.1933 20.4709 15.4939 20.2885 14.7032 20.2885C13.9125 20.2885 13.203 20.4709 12.5745 20.8359C11.946 21.2008 11.4493 21.7178 11.0844 22.3868C10.7194 23.0558 10.537 23.8668 10.537 24.8196C10.537 25.7522 10.7194 26.5631 11.0844 27.2524C11.4493 27.9215 11.946 28.4384 12.5745 28.8034C13.203 29.1683 13.9125 29.3508 14.7032 29.3508ZM26.85 33V16.6392H31.594V33H26.85ZM29.222 14.3585C28.3502 14.3585 27.6407 14.105 27.0933 13.5982C26.5459 13.0914 26.2722 12.4629 26.2722 11.7128C26.2722 10.9626 26.5459 10.3341 27.0933 9.82731C27.6407 9.32047 28.3502 9.06705 29.222 9.06705C30.0938 9.06705 30.8033 9.31033 31.3507 9.7969C31.8981 10.2632 32.1718 10.8714 32.1718 11.6215C32.1718 12.4122 31.8981 13.0711 31.3507 13.5982C30.8236 14.105 30.114 14.3585 29.222 14.3585ZM45.6674 33.2433C44.2279 33.2433 42.9912 32.9392 41.9573 32.331C40.9233 31.7228 40.1327 30.8003 39.5853 29.5636C39.0379 28.3067 38.7642 26.7253 38.7642 24.8196C38.7642 22.8936 39.048 21.3123 39.6157 20.0756C40.2036 18.8389 41.0146 17.9165 42.0485 17.3083C43.0825 16.7001 44.2888 16.3959 45.6674 16.3959C47.2081 16.3959 48.5868 16.7406 49.8032 17.4299C51.0399 18.1192 52.013 19.0923 52.7226 20.3493C53.4524 21.6063 53.8173 23.0964 53.8173 24.8196C53.8173 26.5226 53.4524 28.0026 52.7226 29.2595C52.013 30.5165 51.0399 31.4998 49.8032 32.2093C48.5868 32.8986 47.2081 33.2433 45.6674 33.2433ZM35.9969 33V10.4355H40.7409V19.954L40.4368 24.7892L40.528 29.6549V33H35.9969ZM44.8463 29.3508C45.6369 29.3508 46.3364 29.1683 46.9446 28.8034C47.5731 28.4384 48.0698 27.9215 48.4347 27.2524C48.8199 26.5631 49.0125 25.7522 49.0125 24.8196C49.0125 23.8668 48.8199 23.0558 48.4347 22.3868C48.0698 21.7178 47.5731 21.2008 46.9446 20.8359C46.3364 20.4709 45.6369 20.2885 44.8463 20.2885C44.0556 20.2885 43.346 20.4709 42.7176 20.8359C42.0891 21.2008 41.5924 21.7178 41.2274 22.3868C40.8625 23.0558 40.6801 23.8668 40.6801 24.8196C40.6801 25.7522 40.8625 26.5631 41.2274 27.2524C41.5924 27.9215 42.0891 28.4384 42.7176 28.8034C43.346 29.1683 44.0556 29.3508 44.8463 29.3508Z" fill="#F98007"/>
<rect x="59.563" y="3.84766" width="36.7727" height="37.3047" rx="3.89876" fill="#1C1C1C"/>
<path d="M77.9353 13.5695H81.832V25.5385C81.832 26.8824 81.511 28.0583 80.8691 29.0662C80.2331 30.0742 79.3422 30.8601 78.1963 31.424C77.0504 31.982 75.7155 32.261 74.1916 32.261C72.6618 32.261 71.3239 31.982 70.178 31.424C69.032 30.8601 68.1411 30.0742 67.5052 29.0662C66.8692 28.0583 66.5512 26.8824 66.5512 25.5385V13.5695H70.4479V25.2055C70.4479 25.9075 70.6009 26.5314 70.9069 27.0774C71.2189 27.6234 71.6568 28.0523 72.2208 28.3643C72.7847 28.6763 73.4417 28.8323 74.1916 28.8323C74.9476 28.8323 75.6045 28.6763 76.1625 28.3643C76.7264 28.0523 77.1614 27.6234 77.4674 27.0774C77.7793 26.5314 77.9353 25.9075 77.9353 25.2055V13.5695ZM88.9347 13.5695V32H85.038V13.5695H88.9347Z" fill="white"/>
</svg>
